# xmcd
#
# Track frame offsets:
#	150
#	15677
#	31733
#	42606
#	77847
#	88998
#	102233
#	113518
#	136019
#	147482
#	159661
#	171621
#	186962
#	202169
#
# Disc length: 2883 seconds
#
# Revision: 0
# Processed by: cddbd v1.5.2PL0 Copyright (c) Steve Scherf et al.
# Submitted via: EasyCDDAExtractor 16.0.6.1
#
DISCID=c60b410e
DTITLE=Willie Dixon - Willie's Blues
DYEAR=1959
DGENRE=Blues
TTITLE0=Joggie Boogie
TTITLE1=Stewball (Studio Version)
TTITLE2=John Henry
TTITLE3=Kansas City No. 1, 2 and 3
TTITLE4=Have You Ever Been To Nashwille Pen
TTITLE5=Roll and Tumble
TTITLE6=Beer Drinking Woman
TTITLE7=Chicago House Rent Party
TTITLE8=44 Blues
TTITLE9=Unlucky
TTITLE10=Crazy for My Baby
TTITLE11=My Baby Don't Stand No Cheating
TTITLE12=Stewball (Live)
TTITLE13=We're Gonna Rock
EXTD=
EXTT0=
EXTT1=
EXTT2=
EXTT3=
EXTT4=
EXTT5=
EXTT6=
EXTT7=
EXTT8=
EXTT9=
EXTT10=
EXTT11=
EXTT12=
EXTT13=
PLAYORDER=
